<?xml version="1.0" standalone="no"?>
<!DOCTYPE svg PUBLIC "-//W3C//DTD SVG 20010904//EN"
 "http://www.w3.org/TR/2001/REC-SVG-20010904/DTD/svg10.dtd">
<svg version="1.0" xmlns="http://www.w3.org/2000/svg"
 width="150.000000pt" height="150.000000pt" viewBox="0 0 150.000000 150.000000"
 preserveAspectRatio="xMidYMid meet">
<metadata>
Created by potrace 1.14, written by Peter Selinger 2001-2017
</metadata>
<g transform="translate(0.000000,150.000000) scale(0.100000,-0.100000)"
fill="#000000" stroke="none">
<path d="M589 1297 c-19 -12 -55 -31 -81 -40 -125 -48 -197 -152 -162 -235 15
-36 42 -72 53 -72 3 0 15 21 25 47 19 45 80 123 96 123 5 0 6 -8 4 -17 -4 -19
-12 -240 -13 -355 l-1 -68 -35 0 c-32 0 -35 -2 -35 -29 0 -44 10 -61 36 -61
l23 0 -1 -162 c0 -93 4 -174 10 -189 6 -15 8 -30 4 -34 -13 -14 67 3 105 21
27 14 37 25 36 39 -6 57 -15 198 -17 253 -2 56 0 63 18 67 12 2 35 7 51 11 17
4 35 8 40 8 13 2 27 -32 72 -164 75 -222 135 -287 246 -266 52 10 105 56 63
56 -23 0 -100 75 -133 131 -18 30 -53 109 -79 177 l-46 122 51 46 c32 29 62
69 83 112 30 61 33 74 33 162 -1 77 -5 103 -22 135 -54 104 -154 165 -281 173
-49 3 -75 9 -79 18 -7 20 -25 17 -64 -9z m187 -146 c139 -63 163 -277 42 -390
-31 -29 -158 -78 -175 -68 -5 3 -8 41 -6 84 1 43 3 146 4 228 1 83 4 153 6
158 8 14 88 7 129 -12z"/>
</g>
</svg>
